<?xml version="1.0" standalone="no"?>
<!DOCTYPE svg PUBLIC "-//W3C//DTD SVG 20010904//EN"
 "http://www.w3.org/TR/2001/REC-SVG-20010904/DTD/svg10.dtd">
<svg version="1.0" xmlns="http://www.w3.org/2000/svg"
 width="4096.000000pt" height="4096.000000pt" viewBox="0 0 4096.000000 4096.000000"
 preserveAspectRatio="xMidYMid meet">

<g transform="translate(0.000000,4096.000000) scale(0.100000,-0.100000)"
fill="#000000" stroke="none">
<path d="M18635 33239 c-425 -70 -738 -461 -712 -889 4 -52 14 -124 23 -160
19 -76 78 -208 124 -277 18 -26 2600 -2616 5739 -5755 l5706 -5708 -5715
-5717 c-4396 -4398 -5723 -5731 -5749 -5775 -140 -241 -167 -486 -82 -735 39
-114 100 -212 189 -305 299 -313 765 -356 1117 -103 33 24 2893 2877 6355
6339 l6295 6296 -6300 6301 c-6714 6714 -6354 6360 -6523 6433 -128 56 -324
79 -467 55z"/>
</g>
</svg>
